<svg width="375" height="472" viewBox="0 0 375 472" preserveAspectRatio="none" fill="none" xmlns="http://www.w3.org/2000/svg">
<path d="M-198.623 14.6152C-170.089 -63.807 -92.9148 -123.049 -16.4858 -174.324C60.1705 -226.086 136.569 -269.654 221.521 -281.9C305.986 -294.374 398.549 -274.552 461.2 -222.389C523.981 -169.868 556.883 -83.8034 575.977 -1.22547C594.713 81.4824 600.259 161.289 582.867 238.091C565.346 314.535 525.504 388.561 464.731 427.26C403.957 465.958 322.382 469.686 242.3 470.846C161.503 472.265 81.7132 470.889 10.0038 439.436C-62.0628 408.113 -126.049 346.714 -167.655 267.863C-209.392 188.655 -227.418 92.3218 -198.623 14.6152Z" fill="#F2F7FD"/>
</svg>
