<svg width="1440" height="585" viewBox="0 0 1440 585" preserveAspectRatio="none" fill="none" xmlns="http://www.w3.org/2000/svg">
<path d="M-423.063 -670.943C-344.593 -886.604 -132.365 -1049.52 77.8148 -1190.52C288.62 -1332.87 498.716 -1452.68 732.334 -1486.36C964.611 -1520.66 1219.16 -1466.15 1391.45 -1322.71C1564.1 -1178.27 1654.58 -941.594 1707.09 -714.505C1758.61 -487.058 1773.86 -267.591 1726.04 -56.3844C1677.85 153.838 1568.29 357.409 1401.16 463.829C1234.03 570.249 1009.7 580.501 789.476 583.691C567.285 587.595 347.862 583.809 150.661 497.314C-47.5221 411.176 -223.483 242.327 -337.901 25.4889C-452.678 -192.334 -502.248 -457.25 -423.063 -670.943Z" fill="#F2F7FD"/>
</svg>
