<svg width="182" height="26" viewBox="0 0 182 26" fill="none" xmlns="http://www.w3.org/2000/svg">
<path d="M58.4098 9.71499C57.6181 10.787 56.2935 12.6507 55.4875 13.7392C55.0782 14.2927 54.3392 15.2978 56.7894 15.2978H69.6897C69.6897 15.2978 71.7688 12.4693 73.5119 10.1036C75.8827 6.88547 73.717 0.189453 65.2408 0.189453H31.8597L26.0718 8.05335H57.6171C59.2097 8.05335 59.188 8.65946 58.4098 9.71499ZM48.9327 17.2377C46.4825 17.2377 47.2216 16.2306 47.6308 15.6771C48.4369 14.5886 49.7831 12.7445 50.5747 11.6725C51.354 10.6169 51.3746 10.0108 49.78 10.0108H35.353L23.7288 25.8087H52.0766C61.4393 25.8087 66.652 19.4405 68.259 17.2387L48.9327 17.2377ZM67.3735 25.8087H84.0033L90.3076 17.2367L73.6799 17.2387C73.6747 17.2377 67.3735 25.8087 67.3735 25.8087ZM110.28 0.189453L103.902 8.85325H96.48L102.855 0.189453H86.2308L75.1086 15.2978H115.784L126.903 0.189453H110.28ZM91.425 25.8087H108.049L114.356 17.2387H97.7324C97.7262 17.2377 91.425 25.8087 91.425 25.8087ZM0 20.6187V22.4391H23.1598L24.4978 20.6187H0ZM26.9871 17.2377H0V19.056H25.6461L26.9871 17.2377ZM0 25.8087H20.6787L22.0105 23.9987H0V25.8087ZM156.754 22.438H181.159V20.6177H158.094L156.754 22.438ZM154.275 25.8087H181.159V23.9987H155.606L154.275 25.8087ZM160.58 17.2377L159.243 19.0581H181.159V17.2377H160.58ZM138.805 15.2978L149.926 0.189453H132.32C132.313 0.189453 121.19 15.2978 121.19 15.2978H138.805ZM119.764 17.2377C119.764 17.2377 118.549 18.8983 117.959 19.6982C115.871 22.5184 117.717 25.8087 124.531 25.8087H151.229L157.537 17.2387H119.764V17.2377Z" fill="#666E7E"/>
</svg>
