<svg width="381" height="125" viewBox="0 0 381 125" fill="none" xmlns="http://www.w3.org/2000/svg">
<path fill-rule="evenodd" clip-rule="evenodd" d="M148.132 67.6625C148.017 67.9396 147.823 68.1765 147.573 68.3429C147.323 68.5094 147.029 68.5978 146.728 68.597H138.305C138.005 68.5972 137.711 68.5086 137.461 68.3422C137.211 68.1758 137.017 67.9393 136.902 67.6625L122.116 31.8084C122.02 31.5786 121.983 31.3288 122.007 31.0811C122.032 30.8335 122.117 30.5957 122.256 30.389C122.395 30.1823 122.583 30.013 122.804 29.8963C123.024 29.7796 123.27 29.719 123.52 29.72H128.743C129.043 29.7203 129.337 29.8093 129.587 29.9755C129.837 30.1418 130.031 30.3781 130.147 30.6545L142.561 60.647L154.962 30.6545C155.075 30.3765 155.27 30.1387 155.52 29.9715C155.77 29.8042 156.064 29.7151 156.365 29.7156H161.584C161.834 29.7154 162.08 29.7767 162.3 29.8939C162.521 30.0112 162.709 30.1808 162.847 30.3878C162.986 30.5948 163.072 30.8327 163.096 31.0805C163.121 31.3283 163.084 31.5783 162.988 31.8084L148.132 67.6625ZM184.41 69.571C181.7 69.5891 179.016 69.0499 176.524 67.9872C172.84 66.4129 169.703 63.7908 167.505 60.4485C165.307 57.1063 164.146 53.1922 164.168 49.1958C164.139 43.8597 166.114 38.7062 169.703 34.748C171.38 32.9267 173.398 31.4509 175.644 30.4044C177.928 29.3479 180.418 28.8086 182.936 28.8249C185.447 28.8 187.938 29.2681 190.267 30.2026C192.535 31.1424 194.538 32.6199 196.102 34.5067C197.877 36.6965 199.186 39.2239 199.948 41.9346C200.472 43.6325 200.956 48.4938 201.189 51.0604C201.208 51.2677 201.182 51.4765 201.115 51.6735C201.048 51.8705 200.941 52.0513 200.799 52.2045C200.658 52.3577 200.486 52.4798 200.295 52.5631C200.104 52.6464 199.897 52.689 199.689 52.6882H172.502C172.874 54.0932 173.477 55.4273 174.284 56.6369C175.075 57.8327 176.044 58.901 177.158 59.8046C178.274 60.6995 179.534 61.3983 180.885 61.8711C182.277 62.3611 183.743 62.6089 185.22 62.6038C187.185 62.6219 189.132 62.235 190.94 61.4674C192.149 60.867 193.292 60.1437 194.351 59.3088C194.652 59.0795 195.026 58.9661 195.404 58.9895C195.783 59.0129 196.14 59.1714 196.41 59.4361L199.117 62.1475C199.264 62.2947 199.377 62.4713 199.451 62.6657C199.524 62.86 199.556 63.0676 199.543 63.2749C199.53 63.4822 199.473 63.6844 199.376 63.8682C199.279 64.052 199.144 64.2132 198.98 64.3412C197.519 65.4425 195.139 67.1272 193.374 67.8512C190.531 69.0159 187.483 69.6007 184.41 69.571V69.571ZM182.953 35.9677C181.742 35.9609 180.542 36.2091 179.433 36.696C178.3 37.1983 177.259 37.8848 176.353 38.7274C175.385 39.6161 174.565 40.6528 173.924 41.7986C173.236 43.0175 172.73 44.33 172.423 45.6946H192.925C192.823 44.4129 192.526 43.154 192.045 41.9609C191.577 40.7989 190.89 39.737 190.021 38.8327C189.152 37.9412 188.12 37.2247 186.98 36.7223C185.706 36.1911 184.334 35.934 182.953 35.9677V35.9677ZM229.115 35.9677C229.08 36.0849 229.021 36.1935 228.941 36.2865C228.861 36.3795 228.763 36.4549 228.652 36.5077C228.542 36.5606 228.421 36.5899 228.299 36.5936C228.176 36.5973 228.054 36.5754 227.94 36.5293L227.72 36.4371C227.395 36.3274 227.021 36.2178 226.585 36.1125C226.134 36.0011 225.672 35.9466 225.207 35.9501C223.715 35.9364 222.232 36.1967 220.833 36.7179C219.555 37.1915 218.374 37.8933 217.348 38.7888C216.386 39.6424 215.602 40.6771 215.042 41.8337C214.477 42.9834 214.185 44.2475 214.189 45.5279L214.114 67.0702C214.113 67.4709 213.952 67.8548 213.667 68.1377C213.383 68.4206 212.997 68.5795 212.596 68.5795H207.768C207.365 68.5795 206.979 68.42 206.695 68.1361C206.41 67.8523 206.25 67.4673 206.25 67.0658V31.2293C206.25 30.8278 206.41 30.4428 206.695 30.1589C206.979 29.8751 207.365 29.7156 207.768 29.7156H211.438C211.747 29.7163 212.049 29.8107 212.302 29.9862C212.556 30.1617 212.751 30.4101 212.86 30.6984L214.109 34.0197C215.202 32.4384 216.66 31.1427 218.36 30.2421C220.12 29.3002 222.321 28.8279 224.961 28.8249C226.392 28.8944 227.817 29.0483 229.23 29.2856C229.439 29.3173 229.64 29.3933 229.818 29.5085C229.996 29.6236 230.148 29.7754 230.262 29.9535C230.377 30.1317 230.452 30.3322 230.482 30.5416C230.513 30.751 230.498 30.9645 230.44 31.1678L229.12 35.994L229.115 35.9677ZM239.408 67.623C239.295 67.9049 239.101 68.1468 238.849 68.3173C238.597 68.4877 238.3 68.5791 237.995 68.5795H234.303C233.901 68.5783 233.516 68.4185 233.231 68.1349C232.947 67.8512 232.786 67.4669 232.785 67.0658V10.8584C232.785 10.4569 232.945 10.0719 233.23 9.78808C233.515 9.50421 233.901 9.34473 234.303 9.34473H239.144C239.344 9.34415 239.541 9.38291 239.726 9.45877C239.91 9.53464 240.078 9.64611 240.219 9.78678C240.36 9.92746 240.472 10.0946 240.548 10.2785C240.624 10.4624 240.663 10.6595 240.662 10.8584V33.9363C242.147 32.3342 243.944 31.0504 245.943 30.1631C248.145 29.2291 250.521 28.773 252.913 28.8249C255.493 28.8025 258.046 29.3415 260.394 30.4044C262.653 31.4356 264.679 32.9133 266.348 34.748C268.052 36.6525 269.378 38.8618 270.256 41.2589C272.145 46.3946 272.145 52.0321 270.256 57.1678C269.369 59.5604 268.036 61.7637 266.326 63.6612C264.657 65.4959 262.631 66.9736 260.372 68.0047C258.024 69.069 255.471 69.6095 252.891 69.5886C250.541 69.6194 248.211 69.1559 246.053 68.2285C244.04 67.3465 242.211 66.0948 240.662 64.5386L239.408 67.623ZM252.214 35.9677C250.702 35.9585 249.198 36.1911 247.76 36.6565C246.366 37.1078 245.101 37.8873 244.073 38.9292C242.959 40.0915 242.12 41.487 241.617 43.0139C240.979 45.0065 240.682 47.0918 240.737 49.1826C240.693 51.1938 240.991 53.1979 241.617 55.1101C242.136 56.6622 242.979 58.0873 244.09 59.2913C245.118 60.3812 246.378 61.2269 247.778 61.7658C249.193 62.3119 250.697 62.5916 252.214 62.5906C253.763 62.5957 255.291 62.2332 256.671 61.5333C258.072 60.8325 259.314 59.853 260.319 58.6551C261.373 57.3861 262.195 55.9427 262.749 54.3905C263.934 51.0282 263.934 47.3634 262.749 44.0011C262.201 42.4596 261.378 41.0296 260.319 39.7804C259.311 38.606 258.068 37.6529 256.671 36.9812C255.282 36.3088 253.758 35.9621 252.214 35.9677V35.9677ZM283.017 9.34473C283.217 9.34415 283.415 9.38291 283.599 9.45877C283.784 9.53464 283.951 9.64611 284.092 9.78678C284.233 9.92746 284.345 10.0946 284.421 10.2785C284.497 10.4624 284.536 10.6595 284.536 10.8584V67.0834C284.536 67.4848 284.376 67.8698 284.091 68.1537C283.806 68.4375 283.42 68.597 283.017 68.597H278.177C277.774 68.597 277.388 68.4375 277.103 68.1537C276.819 67.8698 276.659 67.4848 276.659 67.0834V10.8584C276.658 10.6595 276.697 10.4624 276.773 10.2785C276.849 10.0946 276.961 9.92746 277.102 9.78678C277.243 9.64611 277.411 9.53464 277.595 9.45877C277.78 9.38291 277.977 9.34415 278.177 9.34473H283.017ZM298.107 67.079C298.108 67.2781 298.069 67.4754 297.993 67.6596C297.917 67.8437 297.805 68.0111 297.664 68.1521C297.523 68.2932 297.355 68.405 297.171 68.4814C296.986 68.5577 296.789 68.597 296.589 68.597H291.748C291.346 68.5959 290.961 68.4359 290.677 68.1521C290.394 67.8684 290.234 67.4841 290.234 67.0834V31.2293C290.234 30.8286 290.394 30.4442 290.677 30.1605C290.961 29.8767 291.346 29.7167 291.748 29.7156H296.496C296.898 29.7156 297.284 29.8745 297.568 30.1574C297.853 30.4403 298.013 30.8242 298.015 31.2249L298.107 67.079ZM294.146 21.2742C293.48 21.2859 292.819 21.1585 292.205 20.9C291.591 20.6416 291.038 20.2579 290.582 19.7737C290.11 19.2992 289.738 18.7353 289.487 18.1151C289.237 17.495 289.114 16.8311 289.125 16.1628C289.118 15.5021 289.242 14.8464 289.492 14.2342C289.741 13.6219 290.11 13.0653 290.577 12.5968C291.045 12.1283 291.601 11.7574 292.214 11.5056C292.827 11.2538 293.484 11.1263 294.146 11.1304C294.809 11.1176 295.468 11.2407 296.081 11.492C296.694 11.7433 297.249 12.1175 297.711 12.5914C298.186 13.0562 298.56 13.6127 298.811 14.2268C299.062 14.8409 299.185 15.4997 299.172 16.1628C299.178 16.8308 299.05 17.4931 298.795 18.111C298.54 18.7288 298.164 19.2897 297.689 19.7605C297.234 20.2476 296.682 20.634 296.068 20.8948C295.454 21.1555 294.792 21.2848 294.124 21.2742H294.146ZM311.124 67.0834C311.124 67.4848 310.964 67.8698 310.679 68.1537C310.394 68.4375 310.008 68.597 309.606 68.597H304.765C304.363 68.5959 303.977 68.436 303.693 68.1524C303.408 67.8688 303.248 67.4845 303.247 67.0834V31.2293C303.248 30.8282 303.408 30.4438 303.693 30.1602C303.977 29.8766 304.363 29.7167 304.765 29.7156H308.541C308.829 29.7173 309.11 29.8007 309.353 29.9561C309.595 30.1115 309.788 30.3324 309.909 30.5931L311.119 33.1378C312.495 31.8491 314.085 30.8097 315.819 30.0666C317.71 29.2444 319.754 28.8303 321.817 28.8513C323.425 28.8706 325.025 29.0797 326.583 29.4743C328.399 29.921 330.098 30.7514 331.564 31.9093C333.221 33.2476 334.55 34.9446 335.45 36.8715C336.5 38.9833 337.027 41.7167 337.03 45.0716V67.0965C337.03 67.498 336.87 67.883 336.585 68.1668C336.3 68.4507 335.914 68.6102 335.512 68.6102H331.111C330.709 68.609 330.323 68.4492 330.039 68.1656C329.754 67.8819 329.594 67.4976 329.593 67.0965V44.9751C329.635 43.5172 329.373 42.0664 328.823 40.7149C328.392 39.6765 327.728 38.7504 326.882 38.008C326.036 37.2657 325.03 36.7267 323.943 36.4327C322.874 36.1376 321.769 35.99 320.66 35.994C319.656 36.0158 318.66 36.1798 317.703 36.481C316.575 36.8153 315.518 37.3504 314.583 38.0605C313.59 38.8168 312.75 39.7549 312.109 40.8246C311.4 42.0714 311.049 43.4896 311.097 44.9224L311.124 67.0834ZM360.793 66.9737C358.294 67.0052 355.816 66.5201 353.515 65.549C351.214 64.5778 349.14 63.1418 347.424 61.3314C345.746 59.5645 344.413 57.5007 343.494 55.2461C342.545 52.9139 342.063 50.4185 342.077 47.9015C342.061 45.397 342.542 42.9141 343.494 40.5964C344.407 38.374 345.741 36.348 347.424 34.6295C349.112 32.9159 351.121 31.5503 353.338 30.6106C357.983 28.7464 363.155 28.6589 367.86 30.3649C369.841 31.165 371.638 32.3593 373.141 33.8749L374.368 30.9836C374.484 30.7091 374.679 30.4749 374.928 30.3102C375.177 30.1455 375.469 30.0577 375.768 30.0578H379.403C379.805 30.059 380.19 30.2188 380.475 30.5024C380.759 30.786 380.92 31.1704 380.921 31.5715V40.4341C380.921 42.7068 380.934 45.5469 380.96 48.9545C380.987 52.3621 381 56.5023 381 61.3753C381 62.9987 380.947 64.5781 380.837 66.1225C380.737 67.6267 380.507 69.1196 380.151 70.5845C379.798 72.0193 379.281 73.409 378.611 74.7263C377.883 76.1274 376.97 77.4246 375.895 78.5828C373.913 80.7445 371.379 82.3292 368.564 83.1677C365.758 83.963 362.852 84.3588 359.935 84.3435C357.439 84.3673 354.952 84.0424 352.546 83.3783C350.709 82.7752 348.918 82.042 347.186 81.1846C346.933 81.0636 346.719 80.8731 346.57 80.6353C346.421 80.3975 346.343 80.1223 346.346 79.842V77.6044C346.346 75.5643 348.929 74.5025 350.72 75.4853C350.943 75.6125 351.174 75.7267 351.411 75.8275C353.891 76.8369 356.552 77.334 359.231 77.2885C361.068 77.3033 362.897 77.043 364.656 76.5163C366.271 76.0427 367.769 75.2405 369.057 74.1603C370.346 73.0397 371.358 71.6372 372.014 70.0624C372.776 68.1595 373.141 66.1218 373.088 64.0736V62.5336C372.357 63.1875 371.556 63.7585 370.698 64.2359C369.713 64.7941 368.683 65.2696 367.618 65.6574C366.496 66.0657 365.346 66.3913 364.177 66.6315C363.056 66.8589 361.915 66.9736 360.771 66.9737H360.793ZM361.563 35.9677C360.034 35.957 358.519 36.2555 357.109 36.8452C355.003 37.734 353.209 39.2271 351.955 41.1348C350.701 43.0425 350.045 45.2787 350.069 47.5593C350.055 49.132 350.354 50.6917 350.949 52.1485C351.52 53.5426 352.36 54.8113 353.422 55.8822C354.484 56.9412 355.734 57.7938 357.109 58.3962C358.511 59.0188 360.029 59.3374 361.563 59.3308C363.08 59.3384 364.587 59.0907 366.021 58.5981C367.381 58.1366 368.625 57.3884 369.669 56.4043C370.731 55.3736 371.56 54.1272 372.098 52.7496C372.724 51.0906 373.022 49.3268 372.978 47.5549C373.028 45.7168 372.729 43.8859 372.098 42.1583C371.581 40.7829 370.749 39.5465 369.669 38.5475C368.62 37.6158 367.373 36.9345 366.021 36.5556C364.563 36.1496 363.054 35.9516 361.541 35.9677H361.563Z" fill="#0699CD"/>
<path d="M109.515 10.7655L43.2498 36.0475L59.0245 109.838C59.2461 110.967 59.8274 111.993 60.6815 112.764C61.5356 113.535 62.6164 114.008 63.762 114.113C64.9076 114.218 66.0564 113.949 67.0362 113.346C68.0161 112.743 68.7742 111.839 69.1971 110.769L109.675 13.2072C109.839 12.8155 109.91 12.3912 109.882 11.9676C109.854 11.544 109.729 11.1325 109.515 10.7655V10.7655Z" fill="#0699CD"/>
<path d="M109.515 10.7655C109.251 10.2927 108.853 9.90845 108.371 9.66105C107.89 9.41365 107.346 9.31414 106.807 9.37502L18.826 19.062C12.918 19.7273 12.3193 28.0771 18.0809 29.5607L43.2498 36.0542L109.515 10.7722V10.7655Z" fill="#37ADD7"/>
<path d="M138.923 97.5335H136.844C136.479 97.5335 136.26 97.7524 136.224 98.1171L136.114 99.7583C134.838 98.2994 132.832 97.2053 130.133 97.2053C125.538 97.2053 122 100.925 122 105.922C122 110.918 125.501 114.638 130.097 114.638C132.941 114.638 134.947 113.362 136.224 111.648L136.333 113.727C136.333 114.091 136.588 114.31 136.917 114.31H138.923C139.324 114.31 139.543 114.091 139.543 113.69V98.1535C139.543 97.7524 139.324 97.5335 138.923 97.5335ZM130.826 111.32C127.945 111.32 125.647 109.022 125.647 105.922C125.647 102.822 127.945 100.524 130.826 100.524C133.962 100.524 136.041 102.822 136.078 105.922C136.078 109.022 133.962 111.32 130.826 111.32Z" fill="#44B3DA"/>
<path d="M166.167 114.638C170.178 114.638 172.731 113.435 173.935 112.705C174.373 112.414 174.446 112.122 174.227 111.794L173.169 109.861C172.987 109.532 172.695 109.46 172.33 109.678C171.309 110.262 169.413 111.137 166.458 111.137C160.368 111.137 156.465 107.235 156.465 101.472C156.465 95.6735 160.477 91.8441 166.458 91.8441C169.376 91.8441 171.309 92.7558 172.294 93.3758C172.622 93.5947 172.914 93.5582 173.133 93.1935L174.227 91.2605C174.446 90.9323 174.373 90.6405 174.081 90.4217C172.768 89.5829 170.178 88.3428 166.167 88.3428C158.107 88.3428 152.599 93.9594 152.599 101.509C152.599 109.022 157.997 114.638 166.167 114.638Z" fill="#44B3DA"/>
<path d="M187.021 97.2053C184.504 97.2053 182.681 98.263 181.623 99.6489V88.8899C181.623 88.4887 181.368 88.2699 181.003 88.2699H178.633C178.268 88.2699 178.013 88.4887 178.013 88.8899V113.69C178.013 114.091 178.268 114.31 178.633 114.31H181.04C181.441 114.31 181.66 114.091 181.66 113.69V105.192C181.696 102.895 183.301 100.488 186.328 100.488C188.99 100.488 190.814 102.494 190.814 105.521V113.69C190.814 114.091 191.033 114.31 191.397 114.31H193.841C194.206 114.31 194.461 114.091 194.461 113.69V105.01C194.461 100.305 191.434 97.2053 187.021 97.2053Z" fill="#44B3DA"/>
<path d="M214.886 105.776C214.886 100.743 211.64 97.2053 206.826 97.2053C201.756 97.2053 198.219 100.998 198.219 105.922C198.219 110.918 202.048 114.638 207.264 114.638C210.364 114.638 212.333 113.69 213.537 112.778C213.828 112.523 213.865 112.231 213.682 111.903L212.734 110.335C212.552 109.97 212.26 109.934 211.932 110.189C210.947 110.845 209.671 111.575 207.665 111.575C204.528 111.575 202.267 109.642 201.829 106.98H214.266C214.631 106.98 214.849 106.761 214.886 106.36V105.776ZM206.935 100.159C209.306 100.159 211.166 101.837 211.421 104.317V104.39H201.866C202.376 101.801 204.309 100.159 206.935 100.159Z" fill="#44B3DA"/>
<path d="M234.658 97.57H232.798C232.433 97.57 232.215 97.8253 232.178 98.19L232.105 100.087C230.829 98.4818 228.786 97.2053 225.905 97.2053C221.31 97.2053 217.772 100.925 217.772 105.922C217.772 110.918 221.273 114.638 225.869 114.638C228.458 114.638 230.355 113.508 231.631 112.013V113.763C231.631 116.535 229.479 118.614 226.014 118.614C223.79 118.614 221.966 117.957 220.69 117.264C220.325 117.046 220.033 117.118 219.851 117.483L218.866 119.088C218.684 119.453 218.72 119.708 219.048 119.927C220.653 120.948 222.878 121.75 226.233 121.75C232.069 121.75 235.242 118.14 235.242 113.325V98.19C235.242 97.8253 235.023 97.57 234.658 97.57ZM226.598 111.32C223.717 111.32 221.419 109.022 221.419 105.922C221.419 102.822 223.717 100.524 226.598 100.524C229.734 100.524 231.813 102.822 231.85 105.922C231.85 109.022 229.734 111.32 226.598 111.32Z" fill="#44B3DA"/>
<path d="M256.17 97.57H254.31C253.946 97.57 253.727 97.8253 253.69 98.19L253.617 100.087C252.341 98.4818 250.298 97.2053 247.417 97.2053C242.822 97.2053 239.284 100.925 239.284 105.922C239.284 110.918 242.785 114.638 247.381 114.638C249.97 114.638 251.867 113.508 253.143 112.013V113.763C253.143 116.535 250.991 118.614 247.527 118.614C245.302 118.614 243.478 117.957 242.202 117.264C241.837 117.046 241.545 117.118 241.363 117.483L240.378 119.088C240.196 119.453 240.232 119.708 240.561 119.927C242.165 120.948 244.39 121.75 247.745 121.75C253.581 121.75 256.754 118.14 256.754 113.325V98.19C256.754 97.8253 256.535 97.57 256.17 97.57ZM248.11 111.32C245.229 111.32 242.931 109.022 242.931 105.922C242.931 102.822 245.229 100.524 248.11 100.524C251.247 100.524 253.326 102.822 253.362 105.922C253.362 109.022 251.247 111.32 248.11 111.32Z" fill="#44B3DA"/>
<path d="M276.413 114.638C280.68 114.638 283.306 112.56 283.306 109.496C283.306 106.36 281.191 105.156 277.653 104.244C274.808 103.551 273.787 103.114 273.787 102.019C273.787 100.779 274.918 100.232 276.486 100.232C278.236 100.232 279.622 100.67 281.045 101.436C281.409 101.655 281.701 101.582 281.883 101.254L282.795 99.5759C283.014 99.2112 282.941 98.9194 282.613 98.7371C281.191 97.8982 279.185 97.2418 276.668 97.2418C272.729 97.2418 270.103 99.1747 270.103 102.202C270.103 105.192 272.802 106.469 276.085 107.271C278.747 107.928 279.622 108.511 279.622 109.678C279.622 110.955 278.492 111.648 276.632 111.648C274.516 111.648 272.766 110.991 271.489 110.153C271.161 109.934 270.869 110.007 270.65 110.335L269.666 112.049C269.483 112.414 269.52 112.705 269.885 112.888C271.635 113.945 273.787 114.638 276.413 114.638Z" fill="#44B3DA"/>
<path d="M303 105.776C303 100.743 299.755 97.2053 294.94 97.2053C289.871 97.2053 286.333 100.998 286.333 105.922C286.333 110.918 290.163 114.638 295.378 114.638C298.478 114.638 300.448 113.69 301.651 112.778C301.943 112.523 301.979 112.231 301.797 111.903L300.849 110.335C300.666 109.97 300.375 109.934 300.046 110.189C299.062 110.845 297.785 111.575 295.779 111.575C292.643 111.575 290.382 109.642 289.944 106.98H302.38C302.745 106.98 302.964 106.761 303 106.36V105.776ZM295.05 100.159C297.42 100.159 299.28 101.837 299.536 104.317V104.39H289.98C290.491 101.801 292.424 100.159 295.05 100.159Z" fill="#44B3DA"/>
<path d="M316.645 97.2418C316.39 97.2053 316.098 97.2053 315.843 97.2053C312.852 97.2053 310.847 98.8465 310.154 100.816L310.044 98.1171C310.044 97.7524 309.789 97.5335 309.424 97.5335H307.528C307.163 97.5335 306.908 97.7524 306.908 98.1535V113.69C306.908 114.091 307.163 114.31 307.528 114.31H309.935C310.336 114.31 310.555 114.091 310.555 113.69V105.375C310.591 103.004 312.196 100.67 315.333 100.67C315.697 100.67 316.025 100.707 316.281 100.779C316.682 100.852 316.937 100.707 316.974 100.269L317.193 97.9347C317.229 97.57 317.047 97.2782 316.645 97.2418Z" fill="#44B3DA"/>
<path d="M335.545 97.5335H332.992C332.664 97.5335 332.409 97.7159 332.263 98.0077L327.412 109.715L322.379 97.9712C322.233 97.6429 322.014 97.5335 321.686 97.5335H318.987C318.55 97.5335 318.367 97.8253 318.55 98.263L325.625 113.982C325.734 114.31 325.99 114.42 326.318 114.42H328.214C328.543 114.42 328.798 114.31 328.907 113.982L335.983 98.263C336.165 97.8618 335.983 97.5335 335.545 97.5335Z" fill="#44B3DA"/>
<path d="M341.142 94.3241C342.601 94.3241 343.731 93.3029 343.731 91.8441C343.731 90.3852 342.601 89.364 341.142 89.4005C339.72 89.437 338.589 90.3852 338.589 91.8441C338.589 93.3029 339.72 94.3241 341.142 94.3241ZM339.975 114.31H342.419C342.783 114.31 343.002 114.091 343.002 113.69V98.1535C343.002 97.7524 342.783 97.5335 342.419 97.5335H339.975C339.61 97.5335 339.391 97.7524 339.391 98.1535L339.355 113.69C339.355 114.091 339.574 114.31 339.975 114.31Z" fill="#44B3DA"/>
<path d="M356.176 114.638C359.021 114.638 360.662 113.763 361.537 113.216C361.865 112.997 361.938 112.742 361.756 112.377L360.771 110.627C360.625 110.335 360.37 110.262 360.005 110.481C359.13 110.955 358.072 111.32 356.431 111.32C353.112 111.32 350.778 109.022 350.778 105.958C350.778 102.822 353.112 100.524 356.577 100.524C358.036 100.524 359.166 100.889 360.005 101.399C360.333 101.582 360.662 101.545 360.844 101.217L361.792 99.5759C362.011 99.2112 361.938 98.9194 361.61 98.6641C360.479 97.9347 358.838 97.2053 356.176 97.2053C351.033 97.2053 347.058 100.998 347.058 105.958C347.058 110.845 350.778 114.638 356.176 114.638Z" fill="#44B3DA"/>
<path d="M381 105.776C381 100.743 377.754 97.2053 372.94 97.2053C367.87 97.2053 364.333 100.998 364.333 105.922C364.333 110.918 368.162 114.638 373.378 114.638C376.478 114.638 378.447 113.69 379.651 112.778C379.942 112.523 379.979 112.231 379.796 111.903L378.848 110.335C378.666 109.97 378.374 109.934 378.046 110.189C377.061 110.845 375.785 111.575 373.779 111.575C370.642 111.575 368.381 109.642 367.943 106.98H380.38C380.745 106.98 380.964 106.761 381 106.36V105.776ZM373.049 100.159C375.42 100.159 377.28 101.837 377.535 104.317V104.39H367.98C368.49 101.801 370.423 100.159 373.049 100.159Z" fill="#44B3DA"/>
</svg>
