<svg fill="none" version="1.1" viewBox="0 0 375 350" preserveAspectRatio="none" xmlns="http://www.w3.org/2000/svg">
 <defs>
  <clipPath id="g">
   <rect x="-6.1859" y="200.01" width="375" height="350" rx="0" fill="#00f" fill-opacity=".51822" fill-rule="evenodd"/>
  </clipPath>
  <clipPath id="f">
   <rect x="-6.1859" y="200.01" width="375" height="350" rx="0" fill="#00f" fill-opacity=".51822" fill-rule="evenodd"/>
  </clipPath>
  <clipPath id="e">
   <rect x="-6.1859" y="200.01" width="375" height="350" rx="0" fill="#00f" fill-opacity=".51822" fill-rule="evenodd"/>
  </clipPath>
  <clipPath id="d">
   <rect width="375" height="350" rx="0" fill="#00f" fill-opacity=".51822" fill-rule="evenodd"/>
  </clipPath>
 </defs>
 <path d="m-588.44 174.64c164.29-120.64 423.56-150.57 671.37-165.86 248.96-15.994 487.36-16.383 708.64 53.365 220.36 68.77 421.32 209.07 510.42 379.15 88.98 170.92 64.74 373.99 11.16 555.1-54.6 180.98-137.74 341.81-272.99 471.57-135.13 128.93-321.58 228.6-516.12 236.74-194.54 8.15-397.3-74.4-593.31-160.28-198.07-86.17-390.31-176.65-526.49-316.55-137.21-140.04-218.37-329.49-224.02-528.16-5.531-199.5 67.293-406.11 231.35-525.07z" clip-path="url(#d)" fill="#2e4057"/>
 <mask id="c" fill="#ffffff">
  <path d="m-261.59 485.19c11.958-32.103 43.972-56.235 75.661-77.102 31.784-21.066 63.445-38.772 98.572-43.614 34.926-4.936 73.13 3.39 98.904 24.916 25.828 21.674 39.238 57.041 46.951 90.949 7.5645 33.961 9.685 66.703 2.3346 98.165-7.4033 31.314-24.024 61.589-49.217 77.331-25.194 15.742-58.908 17.098-91.999 17.403-33.388 0.411-66.352-0.323-95.914-13.375-29.71-13-56.016-38.317-73.039-70.744-17.075-32.574-24.317-72.121-12.253-103.93z"/>
 </mask>
 <path transform="translate(6.1859 -200.01)" d="m-261.59 485.19c11.958-32.103 43.972-56.235 75.661-77.102 31.784-21.066 63.445-38.772 98.572-43.614 34.926-4.936 73.13 3.39 98.904 24.916 25.828 21.674 39.238 57.041 46.951 90.949 7.5645 33.961 9.685 66.703 2.3346 98.165-7.4033 31.314-24.024 61.589-49.217 77.331-25.194 15.742-58.908 17.098-91.999 17.403-33.388 0.411-66.352-0.323-95.914-13.375-29.71-13-56.016-38.317-73.039-70.744-17.075-32.574-24.317-72.121-12.253-103.93z" clip-path="url(#e)" mask="url(#c)" stroke="#06cd9e" stroke-width="4"/>
 <mask id="b" fill="#ffffff">
  <path d="m-276.52 474.38c14.088-31.239 47.651-53.2 80.671-71.923 33.129-18.916 65.908-34.488 101.28-36.995 35.18-2.614 72.739 8.221 97.011 31.406 24.315 23.334 35.32 59.51 40.738 93.853 5.2669 34.385 5.1836 67.195-4.2634 98.1-9.4901 30.755-28.107 59.863-54.302 73.903s-59.925 13.162-92.963 11.277c-33.34-1.799-66.183-4.713-94.803-19.692-28.77-14.937-53.318-41.939-68.125-75.42-14.85-33.631-19.419-73.569-5.246-104.51z"/>
 </mask>
 <path transform="translate(6.1859 -200.01)" d="m-276.52 474.38c14.088-31.239 47.651-53.2 80.671-71.923 33.129-18.916 65.908-34.488 101.28-36.995 35.18-2.614 72.739 8.221 97.011 31.406 24.315 23.334 35.32 59.51 40.738 93.853 5.2669 34.385 5.1836 67.195-4.2634 98.1-9.4901 30.755-28.107 59.863-54.302 73.903s-59.925 13.162-92.963 11.277c-33.34-1.799-66.183-4.713-94.803-19.692-28.77-14.937-53.318-41.939-68.125-75.42-14.85-33.631-19.419-73.569-5.246-104.51z" clip-path="url(#f)" mask="url(#b)" stroke="#06cd9e" stroke-width="4"/>
 <mask id="a" fill="#ffffff">
  <path d="m256.71 402.19c11.958-32.102 43.972-56.235 75.661-77.101 31.784-21.066 63.444-38.772 98.571-43.614 34.927-4.937 73.13 3.389 98.905 24.916 25.828 21.673 39.238 57.041 46.951 90.949 7.564 33.96 9.685 66.703 2.334 98.164-7.403 31.315-24.024 61.59-49.217 77.332-25.194 15.742-58.908 17.097-91.999 17.403-33.387 0.41-66.352-0.324-95.914-13.376-29.71-12.999-56.017-38.317-73.039-70.744-17.076-32.574-24.317-72.121-12.253-103.93z"/>
 </mask>
 <path transform="translate(6.1859 -200.01)" d="m256.71 402.19c11.958-32.102 43.972-56.235 75.661-77.101 31.784-21.066 63.444-38.772 98.571-43.614 34.927-4.937 73.13 3.389 98.905 24.916 25.828 21.673 39.238 57.041 46.951 90.949 7.564 33.96 9.685 66.703 2.334 98.164-7.403 31.315-24.024 61.59-49.217 77.332-25.194 15.742-58.908 17.097-91.999 17.403-33.387 0.41-66.352-0.324-95.914-13.376-29.71-12.999-56.017-38.317-73.039-70.744-17.076-32.574-24.317-72.121-12.253-103.93z" clip-path="url(#g)" mask="url(#a)" stroke="#06cd9e" stroke-width="4"/>
</svg>
