<svg width="1440" height="888" viewBox="1440 888" preserveAspectRatio="none" fill="none" xmlns="http://www.w3.org/2000/svg">
<path fill-rule="evenodd" clip-rule="evenodd" d="M0 834.048V70.1267C134.462 -0.28939 376.06 0.121994 634.956 0.562837C655.468 0.597764 676.088 0.632876 696.772 0.632964C726.755 0.633092 757.321 0.477836 788.183 0.321076C1035.71 -0.936199 1302.27 -2.29017 1440 75.6508V822.976C1430.43 826.927 1420.33 829.939 1409.67 831.927C1218.03 867.689 911.637 887.931 626.263 888C625.283 888 624.303 888 623.324 888C363.526 887.937 121.552 871.125 0 834.048Z" fill="#06CD9E"/>
<path fill-rule="evenodd" clip-rule="evenodd" d="M0 833.756V70.6267C48.6065 44.9455 111.351 28.6182 183.941 18.2588C87.5242 128.948 33.3868 257.887 31.8442 377.324C29.8472 497.054 81.0577 607.17 137.385 716.741C164.817 770.565 193.493 824.458 227.845 872.024C133.621 863.179 54.5332 850.531 0 833.756ZM1440 75.3969V823.161C1430.57 827.021 1420.62 829.97 1410.13 831.927C1319.87 848.776 1204.15 862.18 1077.16 871.652C1088.46 864.236 1099.72 856.63 1110.94 848.846C1229.4 765.969 1344.17 661.802 1385.62 539.808C1409.75 468.207 1409.11 390.12 1388.91 316.165C1381.78 272.55 1367.67 229.969 1347.34 190.826C1312.35 122.795 1259.51 65.0582 1196.76 12.0874C1294.26 22.4216 1379.5 41.293 1440 75.3969ZM788.862 0.321071C906.314 -0.27572 1028.05 -0.894283 1138.27 6.95632C1209.8 53.9869 1271.97 106.928 1318.01 171.975V171.981C1349.3 215.818 1372.83 265.252 1386.87 316.68C1399.43 393.91 1389.98 474.362 1354.25 544.567C1297.84 654.712 1175.11 740.687 1051.57 806.402C994.616 836.417 937.46 862.33 879.706 882.862C699.892 890.087 512.663 889.874 351.773 881.065C341.132 875.173 330.988 868.76 321.411 861.808C233.877 798.265 192.715 689.763 156.122 581.328L156.12 581.322C118.835 472.141 86.6067 363.366 105.684 251.174L105.685 251.168C119.045 170.785 158.572 88.5561 219.247 13.7618C340.421 0.0598843 485.128 0.306376 635.687 0.562834L635.688 0.562835C656.193 0.597762 676.806 0.632873 697.482 0.632961C727.455 0.633088 758.01 0.477833 788.861 0.321074L788.862 0.321071ZM1356.16 545.397C1389.1 480.688 1399.81 407.349 1391.63 335.804C1406.9 403.664 1405.53 474.176 1383.6 539.263C1342.34 660.68 1228.02 764.545 1109.63 847.369C1097.51 855.777 1085.35 863.976 1073.13 871.951C1012.81 876.403 949.982 879.97 886.17 882.599C942.125 862.356 997.508 837.111 1052.68 808.039C1176.29 742.282 1299.49 656.071 1356.16 545.397ZM347.429 880.824C306.549 878.54 267.4 875.697 230.54 872.275C195.909 824.573 167.011 770.318 139.311 715.968L139.308 715.962C82.9757 606.381 31.9692 496.615 33.9584 377.354L33.9585 377.347C35.5023 257.812 89.9498 128.598 186.996 17.8272C196.611 16.4821 206.396 15.2402 216.341 14.0936C156.169 88.7036 116.93 170.651 103.603 250.835C84.4456 363.496 116.826 472.651 154.108 581.826C190.666 690.155 231.973 799.277 320.117 863.263C328.78 869.552 337.901 875.401 347.429 880.824ZM1193.29 11.7245C1176.61 9.99595 1159.58 8.51355 1142.25 7.24401C1212.79 53.9249 1274.17 106.511 1319.8 170.977C1347.23 209.423 1368.74 252.167 1383.14 296.796C1375.35 260.237 1362.63 224.677 1345.44 191.582L1345.43 191.575C1310.21 123.095 1256.81 65.0484 1193.29 11.7245Z" fill="#2E4057"/>
</svg>
