<svg width="153" height="312" viewBox="0 0 153 312" fill="none" xmlns="http://www.w3.org/2000/svg">
<path d="M-219.648 157.865L-219.65 157.871C-231.578 189.32 -224.444 228.559 -207.447 260.983L-219.648 157.865ZM-219.648 157.865C-207.818 126.106 -176.088 102.131 -144.372 81.247L-144.369 81.2453M-219.648 157.865L-144.369 81.2453M-144.369 81.2453C-112.604 60.192 -81.1034 42.5976 -46.2135 37.7882L-46.2101 37.7877M-144.369 81.2453L-46.2101 37.7877M-46.2101 37.7877C-11.5045 32.8824 26.3955 41.1718 51.9088 62.4798C77.4728 83.9331 90.8226 119.023 98.5236 152.878C106.068 186.748 108.165 219.33 100.86 250.598C93.4907 281.768 76.9739 311.762 52.0842 327.314C27.1672 342.883 -6.25418 344.259 -39.3934 344.565L-39.3965 344.565M-46.2101 37.7877L-39.3965 344.565M-39.3965 344.565C-72.7938 344.976 -105.553 344.228 -134.892 331.275L-134.895 331.274M-39.3965 344.565L-134.895 331.274M-134.895 331.274C-164.371 318.376 -190.517 293.233 -207.446 260.984L-134.895 331.274Z" stroke="#06CD9E" stroke-width="2"/>
<path d="M-234.612 147.12L-234.61 147.114C-220.673 116.209 -187.403 94.3864 -154.355 75.6472L-154.352 75.6457C-121.244 56.741 -88.6315 41.2701 -53.4961 38.7801L-53.4926 38.7799C-18.5352 36.1819 18.7228 46.9602 42.7482 69.9079C66.8155 93.0048 77.7793 128.9 83.1895 163.191C88.4422 197.485 88.3469 230.132 78.9582 260.847C69.5115 291.461 51.0171 320.295 25.138 334.165C-0.769537 348.051 -34.2092 347.213 -67.2952 345.325L-67.2982 345.325C-100.649 343.525 -133.286 340.612 -161.689 325.746L-161.692 325.744C-190.237 310.925 -214.636 284.108 -229.361 250.81C-244.143 217.333 -248.625 177.71 -234.612 147.12Z" stroke="#06CD9E" stroke-width="2"/>
</svg>
