<svg width="120" height="406" viewBox="0 0 120 406" preserveAspectRatio="none" fill="none" xmlns="http://www.w3.org/2000/svg">
<path d="M-89.838 28.6603L-89.8323 28.6616C-60.8388 35.3251 -36.3955 60.0806 -14.6243 85.2071L-14.6224 85.2094C7.29764 110.354 26.1541 135.643 34.2403 165.295L34.2412 165.299C42.3908 194.781 39.3909 228.506 23.6681 252.97C7.82277 277.497 -21.28 293 -49.9618 303.48C-78.668 313.823 -106.85 319.301 -134.93 316.494C-162.939 313.619 -190.922 302.695 -207.246 282.92C-223.589 263.121 -228.521 234.363 -232.491 205.684L-232.491 205.681C-236.58 176.795 -239.583 148.358 -231.564 121.515L-231.563 121.512C-223.609 94.5566 -204.604 69.0994 -178.37 50.8181C-151.986 32.4559 -118.572 21.8775 -89.838 28.6603Z" stroke="#06CD9E" stroke-width="2"/>
<path d="M-122.466 22.2477L-122.46 22.2482C-92.8486 25.1081 -65.4104 46.4964 -40.5739 68.5979L-40.5717 68.5999C-15.5853 90.7005 6.38188 113.34 18.2331 141.698L18.2345 141.701C30.1267 169.883 31.5112 203.712 19.0826 230.004C6.5406 256.373 -20.3141 275.508 -47.4006 289.607C-74.5291 303.574 -101.766 312.649 -129.974 313.495C-158.12 314.265 -187.28 307.05 -206.022 289.551C-224.788 272.03 -233.396 244.151 -241.04 216.225L-241.04 216.222C-248.829 188.108 -255.482 160.298 -251 132.643L-251 132.64C-246.596 104.883 -231.042 77.1824 -207.391 55.6633C-183.602 34.0448 -151.836 19.236 -122.466 22.2477Z" stroke="#06CD9E" stroke-width="2"/>
</svg>
