<svg width="244" height="40" viewBox="0 0 244 40" fill="none" xmlns="http://www.w3.org/2000/svg">
<path fill-rule="evenodd" clip-rule="evenodd" d="M159.127 3.4845C159.595 3.4845 160.422 3.59894 160.422 2.85375C160.422 2.26625 159.947 2.1909 159.443 2.1909H158.422V3.4845H159.127ZM160.849 5.51911H160.3L159.245 3.83337H158.419V5.51911H157.95V1.87692H159.555C159.907 1.87692 160.179 1.92018 160.457 2.07229C160.691 2.1923 160.846 2.50767 160.846 2.85654C160.846 3.60173 160.337 3.83478 159.75 3.83478L160.849 5.51911ZM162.024 3.68127C162.02 2.93431 161.722 2.21888 161.194 1.69069C160.666 1.1625 159.95 0.86431 159.203 0.861006C157.636 0.861006 156.312 2.11555 156.312 3.68127C156.312 5.28468 157.636 6.5741 159.203 6.5741C160.731 6.5727 162.024 5.28468 162.024 3.68127ZM155.957 3.68127C155.957 3.25648 156.041 2.83582 156.204 2.44371C156.368 2.05159 156.607 1.69582 156.909 1.397C157.211 1.09819 157.57 0.862288 157.963 0.702967C158.357 0.543646 158.779 0.464077 159.203 0.468879C161.008 0.468879 162.455 1.92018 162.455 3.68127C162.455 5.48144 161.008 6.96483 159.203 6.96483C157.366 6.96483 155.957 5.48144 155.957 3.68127ZM240.618 3.4845C241.093 3.4845 241.913 3.59894 241.913 2.85375C241.913 2.26625 241.401 2.1909 240.973 2.1909H239.918V3.4845H240.618ZM242.306 5.51911H241.793L240.701 3.83337H239.918V5.51911H239.487V1.87692H241.054C241.365 1.87692 241.64 1.92018 241.951 2.07229C242.229 2.1923 242.343 2.50767 242.343 2.85654C242.343 3.60173 241.837 3.83478 241.207 3.83478L242.306 5.51911ZM243.515 3.68127C243.515 2.11555 242.266 0.861006 240.662 0.861006C240.291 0.859715 239.924 0.931781 239.581 1.07306C239.238 1.21433 238.927 1.42202 238.665 1.68416C238.402 1.94631 238.195 2.25773 238.053 2.60048C237.912 2.94323 237.84 3.31055 237.841 3.68127C237.841 5.28468 239.097 6.5741 240.662 6.5741C242.266 6.5727 243.515 5.28468 243.515 3.68127ZM237.448 3.68127C237.448 1.92018 238.818 0.468879 240.662 0.468879C242.46 0.468879 243.908 1.92018 243.908 3.68127C243.908 5.48144 242.46 6.96483 240.662 6.96483C238.818 6.96483 237.448 5.48144 237.448 3.68127ZM47.1046 33.5445C45.9774 33.5486 44.8605 33.3295 43.8184 32.9C42.7762 32.4705 41.8294 31.839 41.0324 31.0419C40.2354 30.2447 39.6041 29.2978 39.1747 28.2556C38.7454 27.2134 38.5265 26.0965 38.5307 24.9693C38.5304 23.8436 38.7519 22.7289 39.1828 21.6889C39.6136 20.6489 40.2452 19.704 41.0416 18.9083C41.8379 18.1127 42.7832 17.4818 43.8236 17.0518C44.8639 16.6218 45.9789 16.4012 47.1046 16.4025C48.2297 16.4019 49.344 16.6231 50.3836 17.0534C51.4232 17.4838 52.3678 18.1148 53.1635 18.9104C53.9591 19.706 54.5901 20.6506 55.0204 21.6903C55.4507 22.7299 55.672 23.8441 55.6714 24.9693C55.676 26.096 55.4576 27.2125 55.0288 28.2544C54.6001 29.2963 53.9693 30.2431 53.173 31.0402C52.3767 31.8373 51.4305 32.4689 50.389 32.8987C49.3475 33.3286 48.2313 33.548 47.1046 33.5445ZM14.9262 33.5445C10.1914 33.5445 6.39566 29.7502 6.39566 24.9693C6.39566 20.2344 10.1914 16.4025 14.9262 16.4025C19.6611 16.4025 23.5 20.2344 23.5 24.9693C23.5039 26.0964 23.2848 27.2131 22.8553 28.2551C22.4258 29.2972 21.7944 30.244 20.9975 31.041C20.2006 31.8381 19.2539 32.4696 18.212 32.8992C17.17 33.3289 16.0533 33.5482 14.9262 33.5445ZM122.801 33.5445C118.066 33.5445 114.272 29.7502 114.272 24.9693C114.272 20.2344 118.066 16.4025 122.801 16.4025C127.497 16.4025 131.337 20.2344 131.337 24.9693C131.342 26.0935 131.125 27.2075 130.698 28.2475C130.271 29.2875 129.643 30.233 128.85 31.0297C128.057 31.8264 127.114 32.4587 126.076 32.8903C125.038 33.3218 123.925 33.5442 122.801 33.5445ZM90.2751 33.5445C89.1471 33.5514 88.029 33.3342 86.9856 32.9057C85.9422 32.4772 84.9942 31.8458 84.1967 31.0481C83.3992 30.2504 82.7679 29.3024 82.3395 28.2589C81.9112 27.2154 81.6942 26.0973 81.7013 24.9693C81.6981 23.8428 81.9178 22.7268 82.3477 21.6856C82.7775 20.6443 83.409 19.6984 84.2059 18.9022C85.0028 18.1059 85.9493 17.4752 86.9909 17.0462C88.0325 16.6172 89.1486 16.3984 90.2751 16.4025C91.4006 16.4017 92.5153 16.6228 93.5554 17.0529C94.5955 17.4831 95.5407 18.114 96.3369 18.9096C97.1331 19.7051 97.7647 20.6498 98.1958 21.6895C98.6268 22.7293 98.8487 23.8437 98.8489 24.9693C98.8526 26.0963 98.6333 27.213 98.2038 28.2549C97.7742 29.2969 97.1429 30.2436 96.346 31.0406C95.5491 31.8376 94.6025 32.4692 93.5606 32.8989C92.5187 33.3286 91.4021 33.548 90.2751 33.5445ZM55.7161 36.7569C53.2243 38.5986 50.2044 39.5863 47.106 39.573C39.0387 39.573 32.5037 33.0366 32.5037 24.9693C32.5037 16.9453 39.0387 10.4117 47.106 10.4117C50.3128 10.4117 53.2865 11.4666 55.6728 13.2277V1.21406H62.0166V39.3399H55.7161V36.7569ZM157.562 19.7293C157.208 17.3374 155.289 15.6196 152.24 15.6196C150.635 15.6196 147.152 16.1638 147.152 18.2389C147.152 21.3327 152.437 21.6048 153.726 21.6857C162.184 22.4686 164.647 26.1875 164.647 30.5694C164.647 33.818 163.003 36.2434 160.657 37.9668C158.662 39.4139 154.552 40 152.045 40C146.485 40 140.851 36.9523 140.106 30.0572H146.331C146.678 33.3087 150.087 34.5213 152.005 34.5213C155.486 34.5213 157.953 33.0366 157.953 31.3131C157.953 28.5738 155.41 27.9849 151.728 27.5956C149.66 27.3612 145.699 26.655 144.058 25.2847C142.222 23.8376 140.655 22.1909 140.655 19.3748C140.655 14.3246 144.607 10.3335 152.399 10.2903C158.856 10.2526 163.748 14.0915 163.901 19.6846L157.562 19.7293ZM23.5377 36.7569C21.0461 38.5999 18.0253 39.5878 14.9262 39.573C6.82546 39.573 0.367188 33.0366 0.367188 24.9693C0.367188 16.9453 6.82546 10.4117 14.9262 10.4117C18.1386 10.4117 21.1124 11.4666 23.5377 13.2277V10.4507H29.7992V39.3399H23.5377V36.7569ZM72.8944 8.45381V1.17499H66.5938V8.45381H72.8944ZM72.8944 39.3385V10.4493H66.5938V39.3385H72.8944ZM131.337 36.7569C128.987 38.5557 126.015 39.573 122.801 39.573C114.739 39.573 108.204 33.0366 108.204 24.9693C108.204 16.9453 114.739 10.4117 122.801 10.4117C126.015 10.4117 128.988 11.4666 131.337 13.2277V10.4507H137.674V39.3399H131.414L131.337 36.7569ZM98.8866 36.7569C96.5003 38.5557 93.4889 39.573 90.2751 39.573C82.2511 39.573 75.6784 33.0366 75.6784 24.9693C75.6784 16.9453 82.2511 10.4117 90.2751 10.4117C93.4889 10.4117 96.4626 11.4666 98.8866 13.2277V1.21406H105.15V39.3399H98.8866V36.7569ZM213.341 21.6857C213.693 14.8353 211.654 7.31789 206.172 0C200.853 6.8504 198.977 14.64 199.443 21.6857H213.341ZM200.264 27.1225C200.029 26.1009 199.834 25.0708 199.678 24.0343H213.104C212.95 25.0712 212.755 26.1015 212.518 27.1225H200.264ZM203.395 34.8772C204.257 36.3117 205.253 37.6615 206.369 38.9087C207.467 37.6933 208.446 36.3215 209.348 34.8772H203.395ZM234.282 21.7234C235.846 18.4733 236.944 14.8353 237.449 10.7633C228.333 11.5476 221.17 15.9671 216.351 21.7234H234.282ZM233.067 24.0343C232.441 25.127 231.772 26.1052 231.072 27.1225L212.788 27.0458C213.374 26.0675 213.963 24.9693 214.63 24.0343H233.067ZM225.864 32.5272C227.01 31.592 228.082 30.5708 229.072 29.4725L183.667 29.4348C184.69 30.5663 185.802 31.6135 186.993 32.5663L225.864 32.5272ZM210.013 34.8772C209.744 36.1777 209.587 37.499 209.544 38.8264C213.888 38.6324 218.388 37.2997 222.46 34.8772H210.013ZM179.678 24.0343C180.341 25.127 181.008 26.1052 181.754 27.1225H199.956C199.443 26.0675 198.82 25.0516 198.148 24.0343H179.678ZM190.321 34.8772C194.393 37.2997 198.857 38.6324 203.2 38.8264C203.151 37.5015 203.008 36.1818 202.772 34.8772H190.321ZM196.387 21.7234C191.615 15.9671 184.494 11.5476 175.37 10.7633C175.834 14.5536 176.877 18.2502 178.464 21.7234H196.387Z" fill="#666E7E"/>
</svg>
