<svg width="375" height="678" viewBox="0 0 375 678" preserveAspectRatio="none" fill="none" xmlns="http://www.w3.org/2000/svg">
<path fill-rule="evenodd" clip-rule="evenodd" d="M0 661.949V14.446C44.6957 0.0035868 100.357 0.211952 158.534 0.429731C165.658 0.456399 172.819 0.483207 180.003 0.483274C190.416 0.483371 201.032 0.364832 211.75 0.245144C268.156 -0.384717 327.408 -1.04636 375 15.3836V652.345C263.919 681.351 100.707 687.431 0 661.949Z" fill="#06CD9E"/>
<path fill-rule="evenodd" clip-rule="evenodd" d="M375 15.3257C368.104 12.953 360.964 10.938 353.624 9.22889C361.205 23.2852 368.368 37.781 375 52.8934V15.3257ZM375 556.095V652.389C355.426 657.492 334.236 661.885 312.058 665.519C315.985 659.857 319.898 654.05 323.798 648.106C341.782 620.464 359.522 589.72 375 556.095ZM375 510.586V554.065C359.443 588.04 341.544 619.108 323.37 647.04C319.172 653.433 314.963 659.669 310.737 665.734C289.746 669.139 267.885 671.867 245.681 673.877C265.129 658.421 284.376 639.146 303.55 616.949C329.011 587.193 354.423 551.951 375 510.586ZM375 77.8349V508.635C354.403 550.299 328.848 585.802 303.196 615.781C283.441 638.651 263.617 658.402 243.588 674.065C181.022 679.594 115.865 679.438 59.8884 672.697C56.2107 668.217 52.704 663.343 49.3923 658.061C25.1396 619.384 11.126 558.912 0 494.063V52.3443C4.17407 38.1446 8.79163 24.1723 13.829 10.5241C55.9561 0.0455448 106.274 0.233838 158.627 0.429761C165.753 0.456433 172.917 0.483228 180.104 0.483289C190.516 0.483411 201.131 0.364942 211.848 0.245313L211.862 0.24513C252.708 -0.210803 295.046 -0.683398 333.373 5.32289C348.662 27.4168 362.719 51.2203 375 77.8349ZM375 54.9857V75.8098C363.047 50.0852 349.44 26.9908 334.679 5.5309C340.72 6.50294 346.656 7.63844 352.467 8.9629C360.487 23.7572 368.042 39.0285 375 54.9857ZM0 49.6325C3.9209 36.4479 8.2229 23.465 12.8867 10.7606C9.41028 11.6411 5.99011 12.5953 2.62976 13.6291C1.74292 15.8537 0.866333 18.088 0 20.3316V49.6325ZM0 607.296C5.25317 627.619 10.814 647.335 16.8849 665.803C11.0856 664.607 5.45117 663.32 0 661.94V607.296ZM0 18.0831V14.4586C0.540527 14.2838 1.08264 14.1113 1.62634 13.9408C1.08032 15.3179 0.538208 16.6987 0 18.0831ZM0 604.273V498.311C11.035 561.795 25.0308 620.962 48.9534 659.114C51.9641 663.915 55.1337 668.381 58.4451 672.522C44.2191 670.775 30.5961 668.601 17.7708 665.984C11.3613 646.583 5.51709 625.764 0 604.273Z" fill="#2E4057"/>
</svg>
