<?xml version="1.0" encoding="UTF-8"?>
<svg width="730px" height="150px" viewBox="0 0 730 150" version="1.1" xmlns="http://www.w3.org/2000/svg" xmlns:xlink="http://www.w3.org/1999/xlink">
    <!-- Generator: Sketch 54.1 (76490) - https://sketchapp.com -->
    <title>bg-waves</title>
    <desc>Created with Sketch.</desc>
    <g id="Session-Page" stroke="none" stroke-width="1" fill="none" fill-rule="evenodd">
        <g id="Teacher-04" transform="translate(-356.000000, -180.000000)">
            <g id="bg-waves" transform="translate(356.000000, 180.000000)">
                <rect id="Rectangle-3" fill="#129DFA" x="0" y="0" width="730" height="150"></rect>
                <path d="M0,103 C37.0505716,127.636498 97.8839049,137.636498 182.5,133 C309.424143,126.045252 448,73 547.5,73 C613.833333,73 674.666667,83 730,103 L730,150 L0,150 L0,103 Z" id="Rectangle-63" fill-opacity="0.2" fill="#FFFFFF"></path>
                <path d="M0,73 C37.0505716,97.6364984 97.8839049,107.636498 182.5,103 C309.424143,96.0452525 448,43 547.5,43 C613.833333,43 674.666667,53 730,73 L730,150 L0,150 L0,73 Z" id="Rectangle-63" fill-opacity="0.2" fill="#FFFFFF" transform="translate(365.000000, 96.500000) scale(-1, 1) translate(-365.000000, -96.500000) "></path>
            </g>
        </g>
    </g>
</svg>