<svg width="28" height="28" viewBox="0 0 28 28" fill="none" xmlns="http://www.w3.org/2000/svg">
<path d="M28 14C28 25.7229 20.6626 28 14 28C7.33735 28 0 25.3012 0 14C0 2.6988 8.18072 0 14 1.53958e-08C19.8193 3.07917e-08 28 2.27711 28 14Z" fill="#0699CD"/>
<path d="M20.7722 13.4501L15.3278 8.00562C15.0241 7.7019 14.5317 7.7019 14.228 8.00562C13.9243 8.30935 13.9243 8.80168 14.228 9.1054L18.3448 13.2222H7.7779C7.34857 13.2222 7.00012 13.5706 7.00012 14C7.00012 14.4293 7.34857 14.7777 7.7779 14.7777H18.3448L14.228 18.8945C13.9243 19.1982 13.9243 19.6906 14.228 19.9943C14.3801 20.1463 14.5788 20.2222 14.7779 20.2222C14.977 20.2222 15.1757 20.1463 15.3278 19.9943L20.7722 14.5498C21.076 14.2461 21.076 13.7538 20.7722 13.4501Z" fill="white"/>
</svg>
