<svg width="1440" height="534" viewBox="0 0 1440 534" preserveAspectRatio="none" fill="none" xmlns="http://www.w3.org/2000/svg">
<path d="M-159.194 174.96C5.09421 54.3196 264.363 24.3944 512.176 9.09564C761.132 -6.89854 999.541 -7.28809 1220.81 62.4604C1441.18 131.23 1642.13 271.529 1731.23 441.611C1820.21 612.53 1795.97 815.601 1742.39 996.715C1687.79 1177.69 1604.65 1338.52 1469.4 1468.28C1334.27 1597.21 1147.83 1696.88 953.284 1705.03C758.743 1713.17 555.987 1630.62 359.97 1544.74C161.902 1458.57 -30.3349 1368.09 -166.521 1228.2C-303.733 1088.16 -384.893 898.698 -390.541 700.035C-396.072 500.535 -323.248 293.928 -159.194 174.96Z" fill="#2E4057"/>
</svg>
