<svg width="116" height="40" viewBox="0 0 116 40" fill="none" xmlns="http://www.w3.org/2000/svg">
<path d="M6.78843 28.5655C7.27528 29.8575 7.94932 30.9622 8.81067 31.8796C9.67202 32.7972 10.6925 33.4993 11.872 33.9861C13.0517 34.473 14.3342 34.7164 15.7198 34.7164C17.068 34.7164 18.3319 34.4636 19.5115 33.9579C20.6912 33.4523 21.7209 32.7409 22.6009 31.8235C23.4809 30.9059 24.1644 29.8107 24.6513 28.5374C25.1381 27.2642 25.3815 25.8413 25.3815 24.2683V0.00195312H31.2795V39.3224H25.4377V35.6712C24.127 37.0567 22.5822 38.124 20.8034 38.8731C19.0245 39.6219 17.1055 39.9964 15.0458 39.9964C12.9486 39.9964 10.992 39.6313 9.17572 38.901C7.35955 38.1708 5.78663 37.1317 4.45732 35.7835C3.12801 34.4353 2.07936 32.8159 1.31173 30.9247C0.543972 29.0336 0.160156 26.9272 0.160156 24.6053V0.00195312H6.05821V24.2683C6.05821 25.8413 6.30158 27.2735 6.78843 28.5655ZM41.4462 0.00195312V14.3258C42.7568 13.0151 44.2736 11.976 45.9961 11.2083C47.7187 10.4405 49.5912 10.0567 51.6133 10.0567C53.7105 10.0567 55.6763 10.4499 57.5113 11.2363C59.3463 12.0227 60.9377 13.09 62.2859 14.4382C63.6341 15.7864 64.7014 17.3778 65.4878 19.2127C66.2742 21.0478 66.6674 22.9951 66.6674 25.0547C66.6674 27.1143 66.2742 29.0522 65.4878 30.8684C64.7014 32.6847 63.6341 34.2669 62.2859 35.6149C60.9377 36.9631 59.3463 38.0304 57.5113 38.8168C55.6763 39.6032 53.7104 39.9963 51.6133 39.9963C49.5911 39.9963 47.7094 39.6125 45.9681 38.8447C44.2267 38.0771 42.7006 37.0379 41.39 35.7272V39.3223H35.7728V0.00195312H41.4462ZM42.0921 28.9305C42.5976 30.129 43.2999 31.1775 44.1986 32.0763C45.0974 32.975 46.1459 33.6866 47.3442 34.2109C48.5426 34.7351 49.8345 34.9973 51.2202 34.9973C52.5684 34.9973 53.8415 34.7351 55.0398 34.2109C56.2381 33.6866 57.2772 32.9751 58.1574 32.0763C59.0374 31.1776 59.7395 30.129 60.2638 28.9305C60.7881 27.7322 61.0502 26.4403 61.0502 25.0547C61.0502 23.6691 60.7881 22.3678 60.2638 21.1507C59.7395 19.9336 59.0374 18.8758 58.1574 17.977C57.2773 17.0784 56.2382 16.3761 55.0398 15.8706C53.8414 15.3651 52.5682 15.1122 51.2202 15.1122C49.8721 15.1122 48.5988 15.365 47.4005 15.8706C46.2022 16.3763 45.1537 17.0784 44.2548 17.977C43.3562 18.8758 42.6446 19.9336 42.1203 21.1507C41.5961 22.3678 41.3339 23.6691 41.3339 25.0547C41.3338 26.4403 41.5866 27.7322 42.0921 28.9305ZM69.8686 19.269C70.6175 17.4715 71.6475 15.8894 72.9581 14.5226C74.2686 13.1557 75.8229 12.0791 77.6204 11.2927C79.4179 10.5063 81.3652 10.1132 83.4623 10.1132C85.5219 10.1132 87.4318 10.4876 89.1919 11.2365C90.9519 11.9855 92.4685 13.0247 93.7418 14.3541C95.015 15.6834 96.0075 17.2564 96.7188 19.0725C97.4304 20.8888 97.7861 22.8642 97.7861 24.9988V26.8525H74.4748C74.6621 28.0134 75.0366 29.09 75.5983 30.0822C76.1601 31.0746 76.8621 31.9359 77.7047 32.6662C78.5472 33.3965 79.5022 33.9676 80.5695 34.3794C81.6368 34.7913 82.7695 34.9974 83.9679 34.9974C87.3757 34.9974 90.1282 33.593 92.2253 30.7844L96.3258 33.8176C94.9028 35.7275 93.1428 37.2255 91.0457 38.3114C88.9485 39.3973 86.5893 39.9404 83.968 39.9404C81.8334 39.9404 79.8394 39.5658 77.9857 38.8169C76.132 38.068 74.5218 37.0194 73.1549 35.6712C71.7881 34.323 70.7115 32.7409 69.9251 30.9247C69.1387 29.1085 68.7454 27.133 68.7454 24.9986C68.7452 22.9764 69.1198 21.0666 69.8686 19.269ZM77.7608 17.0502C76.1693 18.3796 75.1114 20.149 74.5872 22.3585H92.0567C91.5699 20.149 90.5307 18.3796 88.9391 17.0502C87.3475 15.7209 85.4845 15.0561 83.35 15.0561C81.2154 15.0561 79.3524 15.7209 77.7608 17.0502ZM108.402 17.6961C107.204 19.0068 106.605 20.7855 106.605 23.0325V39.3225H100.931V10.6747H106.548V14.2136C107.26 13.0527 108.187 12.1351 109.329 11.4611C110.471 10.7869 111.829 10.4499 113.402 10.4499H115.368V15.7301H113.008C111.136 15.7302 109.601 16.3855 108.402 17.6961Z" fill="#666E7E"/>
</svg>
