<svg width="95" height="50" viewBox="0 0 95 50" fill="none" xmlns="http://www.w3.org/2000/svg">
<g clip-path="url(#clip0)">
<path d="M51.0243 2.2615C50.7201 2.30843 50.4277 3.4286 49.8397 4.01215C49.4097 4.43331 48.873 4.40696 48.5879 4.92763C48.4797 5.12215 48.5147 5.45418 48.3919 5.77299C48.152 6.4106 47.3068 6.4676 47.3068 7.16232C47.3038 7.91257 48.0117 8.05586 48.6244 8.58818C49.1027 9.01668 49.1495 9.31208 49.7285 9.51972C50.223 9.68799 50.9585 9.13803 51.621 9.33549C52.1651 9.49788 52.6856 9.61482 52.8086 10.1735C52.9167 10.6883 52.8012 11.4867 52.1417 11.3947C51.9193 11.3698 50.9556 11.0451 49.771 11.1709C48.3421 11.3332 46.7115 11.7996 46.5521 13.3924C46.4644 14.283 47.5655 15.3331 48.6288 15.1196C49.3644 14.9747 49.0164 14.1076 49.4171 13.6863C49.942 13.1468 52.9167 15.57 55.6822 15.57C56.8464 15.57 57.7121 15.2761 58.5722 14.3752C58.6525 14.3064 58.7505 14.1587 58.8748 14.1499C58.9919 14.1587 59.1966 14.2742 59.2638 14.324C61.4912 16.114 63.1744 19.7044 71.3599 19.7468C72.5108 19.7526 73.8226 20.3025 74.8931 21.2794C75.8482 22.1628 76.4068 23.5359 76.9493 24.9297C77.7683 27.0211 79.2367 29.0554 81.4625 31.3192C81.5839 31.4406 83.4164 32.8651 83.5626 32.9718C83.586 32.9864 83.7206 33.3082 83.6739 33.488C83.6197 34.8452 83.4222 38.7923 86.3647 38.9708C87.0843 39.0073 86.8955 38.5014 86.8955 38.1533C86.8941 37.4659 86.7683 36.7829 87.1311 36.0795C87.6268 35.1114 86.0796 34.6653 86.1249 32.5725C86.157 31.0121 84.8466 31.2782 84.1812 30.0893C83.798 29.4004 83.4573 29.0349 83.4822 28.1924C83.6314 23.4512 82.4731 20.3361 81.8954 19.5713C81.4451 18.9936 81.0721 18.764 81.4844 18.4964C83.94 16.8745 84.4972 15.3652 84.4972 15.3652C85.803 12.2955 86.9775 9.4919 88.5964 8.25772C88.9226 8.00316 89.7591 7.37877 90.2724 7.13303C91.7831 6.42078 92.5787 5.98944 93.0175 5.5623C93.7121 4.88522 94.2605 3.47395 93.5951 2.61841C92.7673 1.56248 91.3356 2.40049 90.7039 2.77483C86.1893 5.45418 85.5238 10.1807 83.9603 12.8952C82.7129 15.0639 80.6845 16.6566 78.8711 16.7868C77.5109 16.8876 76.0456 16.6127 74.5861 15.9722C71.0367 14.4161 69.0944 12.4067 68.6368 12.0514C67.6832 11.3157 60.2802 4.04868 54.2826 3.75182C54.2826 3.75182 53.5383 2.26161 53.3511 2.23673C52.9123 2.18109 52.4634 3.12733 52.1417 3.23713C51.8389 3.33791 51.33 2.21185 51.0243 2.26161V2.2615ZM24.6211 45.6338C24.0565 45.6206 23.5769 45.157 23.5769 44.5838L23.5784 25.8759H17.4126V46.4981C17.4126 47.5086 18.2315 48.3335 19.2362 48.3335H30.0132C31.0251 48.3335 31.8339 47.5086 31.8339 46.4981V25.8759H25.6741L25.6682 44.5838C25.6682 45.157 25.1884 45.6206 24.6211 45.6338ZM45.2651 25.8759H35.9332C34.829 25.8759 33.9296 26.7739 33.9296 27.8897V48.3334H40.1011V29.5805C40.1055 29.0057 40.5705 28.5509 41.1439 28.5509C41.7201 28.5509 42.1822 28.9954 42.1953 29.5644V48.3335H48.342V29.5642C48.3494 28.9953 48.8115 28.5508 49.3862 28.5508C49.9566 28.5508 50.4276 29.0056 50.432 29.5803V48.3335H56.6035V27.8897C56.6035 26.7739 55.7026 25.8759 54.5985 25.8759H45.2651ZM9.16133 29.6198C9.16574 28.9953 8.65683 28.5508 8.11715 28.5508H7.07004V39.9097H8.11715C8.66123 39.9097 9.16585 39.4768 9.16133 38.8553V29.6198ZM13.2987 42.6898H7.07004V48.3335H0.907227V25.8759H13.3382C14.4511 25.8759 15.3197 26.7797 15.3197 27.8986V40.6673C15.3197 41.7876 14.4175 42.6898 13.2987 42.6898ZM77.7523 43.3114C76.5136 43.3114 75.4737 44.3819 75.4737 45.6792C75.4737 46.9807 76.5136 48.0424 77.7918 48.0424C79.0597 48.0424 80.0864 46.9807 80.0864 45.6792C80.0864 44.3789 79.0597 43.3114 77.7916 43.3114H77.7523ZM80.528 45.6718C80.528 47.1971 79.3054 48.4373 77.7918 48.4373C76.262 48.4373 75.0336 47.206 75.0336 45.6718C75.0336 44.1669 76.262 42.9092 77.7464 42.9092C79.3054 42.9092 80.528 44.129 80.528 45.6718Z" fill="#666E7E"/>
<path d="M77.5064 45.4968C77.9349 45.4968 78.1602 45.3447 78.1602 45.0406C78.1602 44.7699 77.9423 44.6311 77.5254 44.6311H77.4026V45.4968H77.5064ZM79.0845 47.2722H78.3489L77.4026 46.013V47.2722H76.8015V44.0884H77.4334C78.2919 44.0884 78.7481 44.4131 78.7481 45.0332C78.7481 45.447 78.479 45.8142 78.1031 45.9238L78.0592 45.94L79.0845 47.2722ZM66.9504 39.9146V29.5736C66.9357 29.0017 66.4751 28.5631 65.9004 28.5631C65.3314 28.5631 64.8605 29.0193 64.8562 29.5897V39.9146H66.9504ZM66.9504 48.334V42.6962H64.8562V48.334H58.6963V27.8903C58.6963 26.7744 59.5956 25.8765 60.6998 25.8765H71.1067C72.2138 25.8765 73.1133 26.7744 73.1133 27.8903V48.3339L66.9504 48.334Z" fill="#666E7E"/>
</g>
<defs>
<clipPath id="clip0">
<rect width="93.3533" height="50" fill="white" transform="translate(0.907227)"/>
</clipPath>
</defs>
</svg>
